<mxfile host="Electron" modified="2024-12-01T08:49:35.791Z" agent="Mozilla/5.0 (Windows NT 10.0; Win64; x64) AppleWebKit/537.36 (KHTML, like Gecko) draw.io/23.1.5 Chrome/120.0.6099.109 Electron/28.1.0 Safari/537.36" etag="2GNHAnBHSss0yCJWHL6y" version="23.1.5" type="device" pages="2">
  <diagram id="ytnOwxeULvlbZG30FI0h" name="概述">
    <mxGraphModel dx="2074" dy="1196" grid="1" gridSize="10" guides="1" tooltips="1" connect="1" arrows="1" fold="1" page="1" pageScale="1" pageWidth="827" pageHeight="1169" math="0" shadow="0">
      <root>
        <mxCell id="0" />
        <mxCell id="1" parent="0" />
        <mxCell id="MZOIs3QINGBZEDAcFz5L-25" value="" style="rounded=0;whiteSpace=wrap;html=1;fillColor=none;strokeColor=#d79b00;" parent="1" vertex="1">
          <mxGeometry x="11" y="500" width="790" height="210" as="geometry" />
        </mxCell>
        <mxCell id="QlgWQ6tkjHOoik1Mjoqo-34" value="" style="rounded=0;whiteSpace=wrap;html=1;fillColor=#fff2cc;strokeColor=#d6b656;" parent="1" vertex="1">
          <mxGeometry x="20" y="195" width="520" height="130" as="geometry" />
        </mxCell>
        <mxCell id="b_-KemsR6YXczpAIBUsM-1" value="" style="rounded=1;whiteSpace=wrap;html=1;fillColor=#F19C99;arcSize=5;fillStyle=solid;" parent="1" vertex="1">
          <mxGeometry x="114" y="198" width="216" height="122" as="geometry" />
        </mxCell>
        <mxCell id="b_-KemsR6YXczpAIBUsM-3" value="" style="rounded=1;whiteSpace=wrap;html=1;arcSize=0;" parent="1" vertex="1">
          <mxGeometry x="20" y="340" width="520" height="44" as="geometry" />
        </mxCell>
        <mxCell id="QlgWQ6tkjHOoik1Mjoqo-10" value="" style="rounded=0;whiteSpace=wrap;html=1;fillColor=#f8cecc;strokeColor=#b85450;" parent="1" vertex="1">
          <mxGeometry x="370" y="70" width="140" height="110" as="geometry" />
        </mxCell>
        <mxCell id="QlgWQ6tkjHOoik1Mjoqo-8" value="" style="rounded=0;whiteSpace=wrap;html=1;fillColor=#d5e8d4;strokeColor=#82b366;" parent="1" vertex="1">
          <mxGeometry x="210" y="70" width="140" height="110" as="geometry" />
        </mxCell>
        <mxCell id="QlgWQ6tkjHOoik1Mjoqo-7" value="" style="rounded=0;whiteSpace=wrap;html=1;fillColor=#dae8fc;strokeColor=#6c8ebf;" parent="1" vertex="1">
          <mxGeometry x="50" y="70" width="140" height="110" as="geometry" />
        </mxCell>
        <mxCell id="QlgWQ6tkjHOoik1Mjoqo-4" value="" style="rounded=0;whiteSpace=wrap;html=1;fillColor=#e1d5e7;strokeColor=#9673a6;" parent="1" vertex="1">
          <mxGeometry x="20" y="80" width="520" height="40" as="geometry" />
        </mxCell>
        <mxCell id="QlgWQ6tkjHOoik1Mjoqo-1" value="work flow" style="rounded=0;whiteSpace=wrap;html=1;fontStyle=1;fontSize=16;" parent="1" vertex="1">
          <mxGeometry x="60" y="85" width="120" height="30" as="geometry" />
        </mxCell>
        <mxCell id="QlgWQ6tkjHOoik1Mjoqo-2" value="data" style="rounded=0;whiteSpace=wrap;html=1;fontStyle=1;fontSize=16;" parent="1" vertex="1">
          <mxGeometry x="220" y="85" width="120" height="30" as="geometry" />
        </mxCell>
        <mxCell id="QlgWQ6tkjHOoik1Mjoqo-3" value="chart" style="rounded=0;whiteSpace=wrap;html=1;fontStyle=1;fontSize=16;" parent="1" vertex="1">
          <mxGeometry x="380" y="85" width="120" height="30" as="geometry" />
        </mxCell>
        <mxCell id="QlgWQ6tkjHOoik1Mjoqo-5" value="作者：尘中远，https://github.com/czyt1988 |&amp;nbsp;&amp;nbsp;https://gitee.com/czyt1988" style="text;html=1;align=center;verticalAlign=middle;resizable=0;points=[];autosize=1;strokeColor=none;fillColor=none;" parent="1" vertex="1">
          <mxGeometry width="400" height="20" as="geometry" />
        </mxCell>
        <mxCell id="QlgWQ6tkjHOoik1Mjoqo-6" value="解决固定工作流问题" style="rounded=0;whiteSpace=wrap;html=1;" parent="1" vertex="1">
          <mxGeometry x="60" y="140" width="120" height="30" as="geometry" />
        </mxCell>
        <mxCell id="QlgWQ6tkjHOoik1Mjoqo-9" value="实现数据的治理" style="rounded=0;whiteSpace=wrap;html=1;" parent="1" vertex="1">
          <mxGeometry x="220" y="140" width="120" height="30" as="geometry" />
        </mxCell>
        <mxCell id="QlgWQ6tkjHOoik1Mjoqo-11" value="实现数据可视化" style="rounded=0;whiteSpace=wrap;html=1;" parent="1" vertex="1">
          <mxGeometry x="380" y="140" width="120" height="30" as="geometry" />
        </mxCell>
        <mxCell id="QlgWQ6tkjHOoik1Mjoqo-12" value="" style="shape=flexArrow;endArrow=classic;html=1;rounded=0;exitX=0.5;exitY=1;exitDx=0;exitDy=0;entryX=0.5;entryY=0;entryDx=0;entryDy=0;endWidth=13.333333333333334;endSize=4;fillColor=#0050ef;strokeColor=#001DBC;" parent="1" source="QlgWQ6tkjHOoik1Mjoqo-1" target="QlgWQ6tkjHOoik1Mjoqo-6" edge="1">
          <mxGeometry width="50" height="50" relative="1" as="geometry">
            <mxPoint x="250" y="200" as="sourcePoint" />
            <mxPoint x="300" y="150" as="targetPoint" />
          </mxGeometry>
        </mxCell>
        <mxCell id="QlgWQ6tkjHOoik1Mjoqo-15" value="" style="shape=flexArrow;endArrow=classic;html=1;rounded=0;exitX=0.5;exitY=1;exitDx=0;exitDy=0;entryX=0.5;entryY=0;entryDx=0;entryDy=0;endWidth=13.333333333333334;endSize=4;fillColor=#008a00;strokeColor=#005700;" parent="1" source="QlgWQ6tkjHOoik1Mjoqo-2" target="QlgWQ6tkjHOoik1Mjoqo-9" edge="1">
          <mxGeometry width="50" height="50" relative="1" as="geometry">
            <mxPoint x="130" y="125" as="sourcePoint" />
            <mxPoint x="130" y="150.00000000000006" as="targetPoint" />
          </mxGeometry>
        </mxCell>
        <mxCell id="QlgWQ6tkjHOoik1Mjoqo-16" value="" style="shape=flexArrow;endArrow=classic;html=1;rounded=0;exitX=0.5;exitY=1;exitDx=0;exitDy=0;entryX=0.5;entryY=0;entryDx=0;entryDy=0;endWidth=13.333333333333334;endSize=4;fillColor=#a20025;strokeColor=#6F0000;" parent="1" source="QlgWQ6tkjHOoik1Mjoqo-3" target="QlgWQ6tkjHOoik1Mjoqo-11" edge="1">
          <mxGeometry width="50" height="50" relative="1" as="geometry">
            <mxPoint x="290" y="125" as="sourcePoint" />
            <mxPoint x="290" y="150" as="targetPoint" />
          </mxGeometry>
        </mxCell>
        <mxCell id="QlgWQ6tkjHOoik1Mjoqo-26" style="edgeStyle=orthogonalEdgeStyle;rounded=0;orthogonalLoop=1;jettySize=auto;html=1;exitX=1;exitY=0.5;exitDx=0;exitDy=0;entryX=0;entryY=0.5;entryDx=0;entryDy=0;fontSize=16;" parent="1" source="QlgWQ6tkjHOoik1Mjoqo-18" target="QlgWQ6tkjHOoik1Mjoqo-20" edge="1">
          <mxGeometry relative="1" as="geometry">
            <Array as="points">
              <mxPoint x="119" y="260" />
              <mxPoint x="119" y="220" />
            </Array>
          </mxGeometry>
        </mxCell>
        <mxCell id="QlgWQ6tkjHOoik1Mjoqo-27" style="edgeStyle=orthogonalEdgeStyle;rounded=0;orthogonalLoop=1;jettySize=auto;html=1;exitX=1;exitY=0.5;exitDx=0;exitDy=0;entryX=0;entryY=0.5;entryDx=0;entryDy=0;fontSize=16;" parent="1" source="QlgWQ6tkjHOoik1Mjoqo-18" target="QlgWQ6tkjHOoik1Mjoqo-21" edge="1">
          <mxGeometry relative="1" as="geometry" />
        </mxCell>
        <mxCell id="QlgWQ6tkjHOoik1Mjoqo-28" style="edgeStyle=orthogonalEdgeStyle;rounded=0;orthogonalLoop=1;jettySize=auto;html=1;exitX=1;exitY=0.5;exitDx=0;exitDy=0;entryX=0;entryY=0.5;entryDx=0;entryDy=0;fontSize=16;" parent="1" source="QlgWQ6tkjHOoik1Mjoqo-18" target="QlgWQ6tkjHOoik1Mjoqo-25" edge="1">
          <mxGeometry relative="1" as="geometry">
            <Array as="points">
              <mxPoint x="119" y="260" />
              <mxPoint x="119" y="300" />
            </Array>
          </mxGeometry>
        </mxCell>
        <mxCell id="QlgWQ6tkjHOoik1Mjoqo-18" value="导入数据" style="rounded=0;whiteSpace=wrap;html=1;" parent="1" vertex="1">
          <mxGeometry x="39" y="245" width="70" height="30" as="geometry" />
        </mxCell>
        <mxCell id="QlgWQ6tkjHOoik1Mjoqo-19" value="Data Work Flow包含三大主题：WorkFlow、Data、Chart" style="text;html=1;align=center;verticalAlign=middle;resizable=0;points=[];autosize=1;strokeColor=none;fillColor=none;" parent="1" vertex="1">
          <mxGeometry x="20" y="40" width="320" height="20" as="geometry" />
        </mxCell>
        <mxCell id="QlgWQ6tkjHOoik1Mjoqo-29" style="edgeStyle=orthogonalEdgeStyle;rounded=0;orthogonalLoop=1;jettySize=auto;html=1;exitX=1;exitY=0.5;exitDx=0;exitDy=0;entryX=0;entryY=0.5;entryDx=0;entryDy=0;fontSize=16;" parent="1" source="QlgWQ6tkjHOoik1Mjoqo-20" target="QlgWQ6tkjHOoik1Mjoqo-22" edge="1">
          <mxGeometry relative="1" as="geometry">
            <Array as="points">
              <mxPoint x="229" y="220" />
              <mxPoint x="229" y="260" />
            </Array>
          </mxGeometry>
        </mxCell>
        <mxCell id="QlgWQ6tkjHOoik1Mjoqo-20" value="数据清洗" style="rounded=0;whiteSpace=wrap;html=1;" parent="1" vertex="1">
          <mxGeometry x="139" y="205" width="80" height="30" as="geometry" />
        </mxCell>
        <mxCell id="QlgWQ6tkjHOoik1Mjoqo-30" style="edgeStyle=orthogonalEdgeStyle;rounded=0;orthogonalLoop=1;jettySize=auto;html=1;exitX=1;exitY=0.5;exitDx=0;exitDy=0;entryX=0;entryY=0.5;entryDx=0;entryDy=0;fontSize=16;" parent="1" source="QlgWQ6tkjHOoik1Mjoqo-21" target="QlgWQ6tkjHOoik1Mjoqo-22" edge="1">
          <mxGeometry relative="1" as="geometry" />
        </mxCell>
        <mxCell id="QlgWQ6tkjHOoik1Mjoqo-21" value="数据治理" style="rounded=0;whiteSpace=wrap;html=1;" parent="1" vertex="1">
          <mxGeometry x="139" y="245" width="80" height="30" as="geometry" />
        </mxCell>
        <mxCell id="QlgWQ6tkjHOoik1Mjoqo-32" style="edgeStyle=orthogonalEdgeStyle;rounded=0;orthogonalLoop=1;jettySize=auto;html=1;exitX=1;exitY=0.5;exitDx=0;exitDy=0;entryX=0;entryY=0.5;entryDx=0;entryDy=0;fontSize=16;" parent="1" source="QlgWQ6tkjHOoik1Mjoqo-22" target="QlgWQ6tkjHOoik1Mjoqo-23" edge="1">
          <mxGeometry relative="1" as="geometry" />
        </mxCell>
        <mxCell id="QlgWQ6tkjHOoik1Mjoqo-22" value="数据处理" style="rounded=0;whiteSpace=wrap;html=1;" parent="1" vertex="1">
          <mxGeometry x="249" y="245" width="70" height="30" as="geometry" />
        </mxCell>
        <mxCell id="QlgWQ6tkjHOoik1Mjoqo-33" style="edgeStyle=orthogonalEdgeStyle;rounded=0;orthogonalLoop=1;jettySize=auto;html=1;exitX=1;exitY=0.5;exitDx=0;exitDy=0;entryX=0;entryY=0.5;entryDx=0;entryDy=0;fontSize=16;" parent="1" source="QlgWQ6tkjHOoik1Mjoqo-23" target="QlgWQ6tkjHOoik1Mjoqo-24" edge="1">
          <mxGeometry relative="1" as="geometry" />
        </mxCell>
        <mxCell id="QlgWQ6tkjHOoik1Mjoqo-23" value="数据可视化" style="rounded=0;whiteSpace=wrap;html=1;" parent="1" vertex="1">
          <mxGeometry x="349" y="245" width="70" height="30" as="geometry" />
        </mxCell>
        <mxCell id="QlgWQ6tkjHOoik1Mjoqo-24" value="输出结果" style="rounded=0;whiteSpace=wrap;html=1;" parent="1" vertex="1">
          <mxGeometry x="449" y="245" width="70" height="30" as="geometry" />
        </mxCell>
        <mxCell id="QlgWQ6tkjHOoik1Mjoqo-31" style="edgeStyle=orthogonalEdgeStyle;rounded=0;orthogonalLoop=1;jettySize=auto;html=1;exitX=1;exitY=0.5;exitDx=0;exitDy=0;entryX=0;entryY=0.5;entryDx=0;entryDy=0;fontSize=16;" parent="1" source="QlgWQ6tkjHOoik1Mjoqo-25" target="QlgWQ6tkjHOoik1Mjoqo-22" edge="1">
          <mxGeometry relative="1" as="geometry">
            <Array as="points">
              <mxPoint x="229" y="300" />
              <mxPoint x="229" y="260" />
            </Array>
          </mxGeometry>
        </mxCell>
        <mxCell id="QlgWQ6tkjHOoik1Mjoqo-25" value="数据抽取聚合" style="rounded=0;whiteSpace=wrap;html=1;" parent="1" vertex="1">
          <mxGeometry x="139" y="285" width="80" height="30" as="geometry" />
        </mxCell>
        <mxCell id="QlgWQ6tkjHOoik1Mjoqo-38" value="" style="group" parent="1" vertex="1" connectable="0">
          <mxGeometry x="120.00000000000011" y="170" width="319.9999999999999" height="25" as="geometry" />
        </mxCell>
        <mxCell id="QlgWQ6tkjHOoik1Mjoqo-35" value="" style="shape=flexArrow;endArrow=classic;html=1;rounded=0;exitX=0.5;exitY=1;exitDx=0;exitDy=0;entryX=0.5;entryY=0;entryDx=0;entryDy=0;endWidth=13.333333333333334;endSize=4;fillColor=#0050ef;strokeColor=#001DBC;" parent="QlgWQ6tkjHOoik1Mjoqo-38" edge="1">
          <mxGeometry width="50" height="50" relative="1" as="geometry">
            <mxPoint as="sourcePoint" />
            <mxPoint y="25" as="targetPoint" />
          </mxGeometry>
        </mxCell>
        <mxCell id="QlgWQ6tkjHOoik1Mjoqo-36" value="" style="shape=flexArrow;endArrow=classic;html=1;rounded=0;exitX=0.5;exitY=1;exitDx=0;exitDy=0;entryX=0.5;entryY=0;entryDx=0;entryDy=0;endWidth=13.333333333333334;endSize=4;fillColor=#008a00;strokeColor=#005700;" parent="QlgWQ6tkjHOoik1Mjoqo-38" edge="1">
          <mxGeometry width="50" height="50" relative="1" as="geometry">
            <mxPoint x="159.9999999999999" as="sourcePoint" />
            <mxPoint x="159.9999999999999" y="25" as="targetPoint" />
          </mxGeometry>
        </mxCell>
        <mxCell id="QlgWQ6tkjHOoik1Mjoqo-37" value="" style="shape=flexArrow;endArrow=classic;html=1;rounded=0;exitX=0.5;exitY=1;exitDx=0;exitDy=0;entryX=0.5;entryY=0;entryDx=0;entryDy=0;endWidth=13.333333333333334;endSize=4;fillColor=#a20025;strokeColor=#6F0000;" parent="QlgWQ6tkjHOoik1Mjoqo-38" edge="1">
          <mxGeometry width="50" height="50" relative="1" as="geometry">
            <mxPoint x="319.9999999999999" as="sourcePoint" />
            <mxPoint x="319.9999999999999" y="25" as="targetPoint" />
          </mxGeometry>
        </mxCell>
        <mxCell id="OMXCkgNobbkZRB5gCNSG-1" value="" style="shape=image;aspect=fixed;image=data:image/svg+xml,PD94bWwgdmVyc2lvbj0iMS4wIiBzdGFuZGFsb25lPSJubyI/PjwhRE9DVFlQRSBzdmcgUFVCTElDICItLy9XM0MvL0RURCBTVkcgMS4xLy9FTiIgImh0dHA6Ly93d3cudzMub3JnL0dyYXBoaWNzL1NWRy8xLjEvRFREL3N2ZzExLmR0ZCI+PHN2ZyB0PSIxNzEwMDAyNjEzNzMzIiBjbGFzcz0iaWNvbiIgdmlld0JveD0iMCAwIDEwMjQgMTAyNCIgdmVyc2lvbj0iMS4xIiB4bWxucz0iaHR0cDovL3d3dy53My5vcmcvMjAwMC9zdmciIHAtaWQ9IjIzMzQ2IiB4bWxuczp4bGluaz0iaHR0cDovL3d3dy53My5vcmcvMTk5OS94bGluayIgd2lkdGg9IjIwMCIgaGVpZ2h0PSIyMDAiPjxwYXRoIGQ9Ik0zNjYuNjM1Mzc1IDQ5NS42Mjc4NzVjOC45MzAyNDk5OS0xLjQ4ODM3NSAxNy44NjA1LTIuNDgwNjI1IDI2Ljc5MDc1LTIuNDgwNjI0OTloLTcuNDQxODc0OTkgMjQxLjYxMjg3NDk5YzEwLjQxODYyNSAwIDIwLjM0MTEyNS0xLjQ4ODM3NSAzMC4yNjM2MjUwMS0zLjk2OSA0NC42NTEyNDk5OS0xMi40MDMxMjUgNzcuMzk1NS01Mi4wOTMxMjUgNzcuMzk1NS0xMDEuMjA5NTAwMDJWMTg1LjA1MzYyNWMwLTU3LjU1MDUtNDkuMTE2Mzc1LTEwMS4yMDk1LTEwNy42NTkxMjUwMS0xMTAuNjM1ODc1MDEtMzcuMjA5Mzc1LTUuOTUzNS05MS4yODctOC45MzAyNDk5OS0xMjguMDAwMjUtOC45MzAyNDk5OS0zNi43MTMyNTAwMSAwLTcxLjkzODEyNSAzLjQ3Mjg3NS0xMDMuMTk0IDguOTMwMjQ5OTlDMzA1LjExNTg3NSA5MC4yOTM3NDk5OSAyODguNzQzNzQ5OTkgMTIzLjUzNDEyNSAyODguNzQzNzQ5OTkgMTg1LjA1MzYyNXY2Ni40ODA3NWgyMjMuMjU2MjUwMDFWMjg4Ljc0Mzc0OTk5SDIxNi4zMDk1QzEzMy40NTY2MjUgMjg4Ljc0Mzc0OTk5IDY1Ljk4MzYyNSAzODcuOTY4NzQ5OTkgNjUuNDg3NSA1MTAuMDE1NXYxLjk4NDVjMCAyMi4zMjU2MjUgMS45ODQ1IDQzLjY1OSA2LjQ0OTYyNSA2My41MDRDOTAuMjkzNzQ5OTkgNjY3Ljc4MzI1MDAxIDE0Ny44NDQyNDk5OSA3MzUuMjU2MjUwMDEgMjE2LjMwOTUgNzM1LjI1NjI1MDAxaDM1LjIyNDg3NXYtMTA2LjY2Njg3NTAxYzAtNjIuNTExNzQ5OTkgNDYuNjM1NzQ5OTktMTIwLjU1ODM3NSAxMTUuMTAxLTEzMi45NjE1eiBtMjMuODE0LTI4My43ODM1Yy0yMi4zMjU2MjUgMC00MC42ODIyNTAwMS0xOC4zNTY2MjUtNDAuMTg2MTI0OTktNDAuNjgyMjUgMC0yMi4zMjU2MjUgMTcuODYwNS00MC42ODIyNTAwMSA0MC4xODYxMjQ5OS00MC42ODIyNXM0MC42ODIyNTAwMSAxOC4zNTY2MjUgNDAuNjgyMjUgNDAuNjgyMjVjLTAuNDk2MTI1IDIyLjgyMTc1MDAxLTE4LjM1NjYyNSA0MC42ODIyNTAwMS00MC42ODIyNSA0MC42ODIyNXoiIGZpbGw9IiMwMDc1QUEiIHAtaWQ9IjIzMzQ3Ij48L3BhdGg+PHBhdGggZD0iTTk0OS4wODYxMjUgNDM0LjEwODM3NUM5MjcuNzUyNzUwMDEgMzQ5LjI3MSA4NzIuNjgyODc1IDI4OC43NDM3NDk5OSA4MDcuNjkwNSAyODguNzQzNzQ5OTloLTM1LjIyNDg3NXY5NC43NTk4NzUwMWMwIDc4Ljg4Mzg3NS01MS41OTcgMTM1LjkzODI1MDAxLTExNS4xMDEgMTQ1Ljg2MDc1LTYuNDQ5NjI1IDAuOTkyMjQ5OTktMTIuODk5MjUwMDEgMS40ODgzNzUtMTkuMzQ4ODc0OTkgMS40ODgzNzUwMUgzOTYuNDAyODc1Yy0xMC40MTg2MjUgMC0yMC4zNDExMjUgMS40ODgzNzUtMzAuMjYzNjI0OTkgMy45NjktNDQuNjUxMjQ5OTkgMTEuOTA3LTc3LjM5NTUgNDguNjIwMjUwMDEtNzcuMzk1NSA5Ni43NDQzNzQ5OVY4MzQuNDgxMjUwMDFjMCA1Ny41NTA1IDU4LjA0NjYyNSA5MS43ODMxMjUgMTE1LjEwMDk5OTk4IDEwOC4xNTUyNDk5OSA2Ny45NjkxMjUgMTkuODQ1IDE0Mi4zODc4NzUgMjMuMzE3ODc1IDIyNC4yNDg1MDAwMiAwIDU0LjA3NzYyNS0xNS4zNzk4NzUgMTA3LjE2My00Ni42MzU3NDk5OSAxMDcuMTYyOTk5OTgtMTA4LjE1NTI1MDAxdi02MS41MTk1aC0yMjMuMjU2MjQ5OTlWNzM1LjI1NjI1MDAxaDI5NS42OTA1YzU4LjU0Mjc1MDAxIDAgMTA5LjY0MzYyNS00OS42MTI1IDEzNC40NDk4NzUtMTIyLjA0Njc1MDAxIDEwLjQxODYyNS0zMC4yNjM2MjUgMTYuMzcyMTI1LTY0LjQ5NjI1MDAxIDE2LjM3MjEyNS0xMDEuMjA5NSAwLTI3LjI4Njg3NS0zLjQ3Mjg3NS01My41ODE1LTkuNDI2Mzc1LTc3Ljg5MTYyNXogbS0zMTYuNTI3NzUgMzcyLjU4OTg3NTAxYzIyLjMyNTYyNSAwIDQwLjE4NjEyNSAxOC4zNTY2MjUgNDAuMTg2MTI1IDQwLjY4MjI0OTk5IDAgMjIuMzI1NjI1LTE4LjM1NjYyNSA0MC42ODIyNTAwMS00MC4xODYxMjUgNDAuNjgyMjUwMDEtMjIuMzI1NjI1IDAtNDAuNjgyMjUwMDEtMTguMzU2NjI1LTQwLjY4MjI1LTQwLjY4MjI1MDAxIDAuNDk2MTI1LTIyLjMyNTYyNSAxOC4zNTY2MjUtNDAuNjgyMjUwMDEgNDAuNjgyMjUtNDAuNjgyMjUwMDF6IiBmaWxsPSIjRkZENDAwIiBwLWlkPSIyMzM0OCI+PC9wYXRoPjwvc3ZnPg==;" parent="1" vertex="1">
          <mxGeometry x="39" y="343" width="40" height="40" as="geometry" />
        </mxCell>
        <mxCell id="OMXCkgNobbkZRB5gCNSG-2" value="" style="shape=image;aspect=fixed;image=data:image/svg+xml,PD94bWwgdmVyc2lvbj0iMS4wIiBzdGFuZGFsb25lPSJubyI/PjwhRE9DVFlQRSBzdmcgUFVCTElDICItLy9XM0MvL0RURCBTVkcgMS4xLy9FTiIgImh0dHA6Ly93d3cudzMub3JnL0dyYXBoaWNzL1NWRy8xLjEvRFREL3N2ZzExLmR0ZCI+PHN2ZyB0PSIxNzEwMDAyNjcwNzU2IiBjbGFzcz0iaWNvbiIgdmlld0JveD0iMCAwIDI1MzAgMTAyNCIgdmVyc2lvbj0iMS4xIiB4bWxucz0iaHR0cDovL3d3dy53My5vcmcvMjAwMC9zdmciIHAtaWQ9IjI0NDQ4IiB4bWxuczp4bGluaz0iaHR0cDovL3d3dy53My5vcmcvMTk5OS94bGluayIgd2lkdGg9IjQ5NC4xNDA2MjUiIGhlaWdodD0iMjAwIj48cGF0aCBkPSJNODk5LjIxOTIyNiA2MTUuODk2MzhjLTMxLjc1MTY5OCAwLTY0LjA5MDgxOS0xMy4xMzk3LTg0LjM0MTQxNC0zOC44OTM1MTJ2MTM5LjEyNjIzNEg3NTEuMjgxNjY0VjM3Mi42NzI4MDZoNTcuNTA1NTFsMi4xOTUxMDMgMzcuNzgwNTAyYzE5LjcyNTAwOC0yOS4wMzEwMDggNTQuNzUzOTAyLTQ0LjM2NTgxIDg4LjE3NTExNi00NC4zNjU4MTEgNjQuMDkwODE5IDAgMTExLjMwMDk4NyA1My43MDI3MjYgMTExLjMwMDk4NyAxMjQuOTA0NDQycy00Ny4xNDgzMzUgMTI0LjkzNTM1OC0xMTEuMjM5MTU0IDEyNC45MDQ0NDF6IG0tMTkuNjk0MDkxLTIwMi42NjA1NDhjLTM3LjI1NDkxNCAwLTY3LjM2ODAxNCAyOS4wMzEwMDgtNjcuMzY4MDE0IDc3Ljc4NzAyNFM4NDIuMjcwMjIxIDU2OC44NzE3MTMgODc5LjUyNTEzNSA1NjguODcxNzEzczY3LjM2ODAxNC0yOS4wMzEwMDggNjcuMzY4MDE0LTc3Ljc4NzAyNC0zMC4xMTMxLTc3Ljg0ODg1Ny02Ny4zNjgwMTQtNzcuODQ4ODU3ek0xMjUwLjE1NzQyMyA2MDkuMzcyOTA1bC0yLjE5NTEwMy0zNy43ODA1MDFjLTE5LjcyNTAwOCAyOS4wMzEwMDgtNTQuNzg0ODE5IDQ0LjM2NTgxLTg4LjIwNjAzMiA0NC4zMzQ4OTMtNjQuMDkwODE5IDAtMTExLjMwMDk4Ny01My42NzE4MDktMTExLjMwMDk4OC0xMjQuODczNTI0czQ3LjExNzQxOC0xMjQuOTA0NDQxIDExMS4zMDA5ODgtMTI0Ljg3MzUyNWMzMy40MjEyMTMgMCA2OC40ODEwMjQgMTUuNDU4NDcgODguMjA2MDMyIDQ0LjM2NTgxbDIuMTk1MTAzLTM3Ljc4MDUwMUgxMzA3Ljc4NjYwMXYyMzYuNjA3MzQ4eiBtLTcwLjY0NTIxLTE5Ni4xMDYxNTZjLTM3LjI1NDkxNCAwLTY3LjM2ODAxNCAyOS4wMzEwMDgtNjcuMzk4OTMxIDc3Ljc4NzAyNFMxMTQyLjIyNjM4MiA1NjguODcxNzEzIDExNzkuNDgxMjk2IDU2OC44NzE3MTNzNjcuMzk4OTMxLTI5LjAzMTAwOCA2Ny4zOTg5MzEtNzcuNzg3MDI0LTMwLjExMzEtNzcuODE3OTQtNjcuMzY4MDE0LTc3LjgxNzk0ek0xNTI5Ljk4NjY1NSA2MDkuNDAzODIydi0xMzAuOTAyMzI3YzAtNDYuMDA0NDA4LTE1Ljg2MDM5MS02MS4zMzkyMTEtNDQuODkxMzk4LTYxLjMzOTIxMS0zMC4xNDQwMTcgMC02My4wMDg3MjYgMjcuMzYxNDkzLTYzLjAwODcyNiA2MC4yMjYyMDF2MTMyLjAxNTMzN2gtNjMuNTY1MjN2LTIzNi42MzgyNjVoNTguMDkyOTMybDIuNzUxNjA3IDQzLjg0MDIyMmMxNS44OTEzMDgtMzAuMTQ0MDE3IDUxLjQ3NjcwNy01MC4zOTQ2MTQgODcuNjQ5NTI4LTUwLjM5NDYxNCA2Mi45Nzc4MDkgMCA4Ni41Njc0MzUgNDMuODQwMjIyIDg2LjU2NzQzNCAxMDIuNDI3ODI1djE0MC43OTU3NDl6TTE4MjYuNDgwMTE4IDYwOS40NjU2NTZsLTIuMTk1MTAyLTM3LjgxMTQxOWMtMTkuNzI1MDA4IDI5LjAzMTAwOC01NC43ODQ4MTkgNDQuMzY1ODEtODguMTc1MTE2IDQ0LjM2NTgxMS02NC4wOTA4MTkgMC0xMTEuMzAwOTg3LTUzLjcwMjcyNi0xMTEuMzAwOTg3LTEyNC45MDQ0NDJzNDcuMTE3NDE4LTEyNC44NzM1MjQgMTExLjMwMDk4Ny0xMjQuODczNTI0YzMxLjc1MTY5OCAwIDY0LjA1OTkwMiAxMy4xNzA2MTcgODQuMzQxNDE1IDM4Ljg5MzUxMlYyODAuODE4NTc0aDYzLjU2NTIzdjMyOC42NDcwODJ6IG0tNzAuNjQ1MjEtMTk2LjEwNjE1NmMtMzcuMTAwMzI5IDAtNjcuMzY4MDE0IDI5LjAzMTAwOC02Ny4zNjgwMTQgNzcuNzU2MTA2UzE3MTguNTc5OTk1IDU2OC44NzE3MTMgMTc1NS44MzQ5MDggNTY4Ljg3MTcxM3M2Ny4zNjgwMTQtMjkuMDAwMDkxIDY3LjM2ODAxNS03Ny43NTYxMDctMzAuMDIwMzUtNzcuNzU2MTA2LTY3LjM2ODAxNS03Ny43NTYxMDZ6TTIxMjIuNzU3MTYzIDYwOS40OTY1NzNsLTIuMTk1MTAzLTM3Ljc4MDUwMmMtMTkuNzI1MDA4IDI5LjAzMTAwOC01NC43ODQ4MTkgNDQuMzM0ODkzLTg4LjIwNjAzMiA0NC4zMzQ4OTQtNjQuMDkwODE5IDAtMTExLjMwMDk4Ny01My42NzE4MDktMTExLjMwMDk4Ny0xMjQuOTA0NDQyczQ3LjExNzQxOC0xMjQuODczNTI0IDExMS4zMDA5ODctMTI0Ljg3MzUyNGMzMy40MjEyMTMgMCA2OC40ODEwMjQgMTUuNDU4NDcgODguMjA2MDMyIDQ0LjM5NjcyN2wyLjE5NTEwMy0zNy44MTE0MTloNTcuNTA1NTF2MjM2LjYwNzM0OXogbS03MC42NDUyMS0xOTYuMTA2MTU2Yy0zNy4xMDAzMjkgMC02Ny4zNjgwMTQgMjkuMDMxMDA4LTY3LjM5ODkzMSA3Ny43ODcwMjNTMjAxNC44NTcwMzkgNTY4Ljg3MTcxMyAyMDUyLjA4MTAzNiA1NjguODcxNzEzczY3LjM5ODkzMS0yOS4wMzEwMDggNjcuMzk4OTMxLTc3Ljc4NzAyNC0zMC4xMTMxLTc3LjY5NDI3My02Ny4zNjgwMTQtNzcuNjk0Mjcyek0yMzIxLjAyNzUwNSA2MTcuMTk0ODkxYTE4NS45OTYzMTcgMTg1Ljk5NjMxNyAwIDAgMS05NC43NjA0MjQtMjYuODY2ODIxbDEwLjQxOTAwOS00My44MDkzMDVjMTkuMTY4NTAzIDExLjUwMTEwMiA0OC4xOTk1MTEgMjYuMzEwMzE3IDgzLjI1OTMyMiAyNi4zMTAzMTYgMjUuMTk3MzA3IDAgNDIuNzI3MjEyLTcuNjY3NDAxIDQyLjcyNzIxMy0yNy4zOTI0MDkgMC0xNi45NzM0MDEtMTguMDg2NDEtMjMuMDAyMjA0LTUwLjM5NDYxNC0zMC42Njk2MDYtNTguMDYyMDE1LTEyLjYxNDExMi03OC44NjkxMTYtNDMuMjgzNzE3LTc4Ljg2OTExNi03Ni43MDQ5MyAwLTM3LjI1NDkxNCAyOS4wMzEwMDgtNzIuMjgzODA4IDkzLjEyMTgyNi03Mi4yODM4MDggMzguODkzNTEyIDAgNzIuODcxMjMgMTYuOTczNDAxIDgwLjM4NDA0NiAyMS4zNjM2MDZsLTEwLjQxOTAwOSA0MS42NDUxMmExMzcuODU4NjQgMTM3Ljg1ODY0IDAgMCAwLTY4LjQ1MDEwNy0xOS43MjUwMDljLTI1LjcyMjg5NSAwLTM4LjMzNzAwNyA4Ljc0OTQ5NC0zOC4zMzcwMDcgMjMuMDAyMjA0IDAgMTUuODYwMzkxIDE2LjQ0NzgxMyAyMy4wMDIyMDQgNDEuNjE0MjAzIDI5LjAzMTAwOCA2Mi40NTIyMjEgMTMuMTM5NyA4Ny42NDk1MjcgNDIuMTcwNzA3IDg3LjY0OTUyNyA3My45NTMzMjIgMC4xMjM2NjggNTAuOTIwMjAyLTM3LjEzMTI0NiA4Mi4xNDYzMTItOTcuOTQ0ODY5IDgyLjE0NjMxMnpNMjMxLjUwNjA1NCAyMTEuNTMzNzFoNzQuNDc4OTF2MTU0LjY0NjUzOEgyMzEuNTA2MDU0ek0yMzEuNTA2MDU0IDUyOS4yMDUyNzhoNzQuNDc4OTF2MTU0LjY0NjUzOEgyMzEuNTA2MDU0eiIgZmlsbD0iIzEzMDc1NCIgcC1pZD0iMjQ0NDkiPjwvcGF0aD48cGF0aCBkPSJNMjMxLjUwNjA1NCA0MTEuMzE4OTgyaDc0LjQ3ODkxdjcyLjk2Mzk4SDIzMS41MDYwNTR6IiBmaWxsPSIjRkZDQTAwIiBwLWlkPSIyNDQ1MCI+PC9wYXRoPjxwYXRoIGQ9Ik0xMTEuODg4NDA5IDMzOC42OTUwODhoNzQuNDc4OTExdjUxNC4wNTU5NzZIMTExLjg4ODQwOXpNMzQ4LjY4MTI2IDY1Ni43OTk0OTNoNzQuNDc4OTF2MTU0LjY0NjUzOGgtNzQuNDc4OTF6TTM0OC42ODEyNiAzMzguODgwNTg5aDc0LjQ3ODkxdjE1NC42NDY1MzloLTc0LjQ3ODkxeiIgZmlsbD0iIzEzMDc1NCIgcC1pZD0iMjQ0NTEiPjwvcGF0aD48cGF0aCBkPSJNMzQ4LjY4MTI2IDUzOC42NjU4NjJoNzQuNDc4OTF2NzIuOTYzOThoLTc0LjQ3ODkxeiIgZmlsbD0iI0U3MDQ4OCIgcC1pZD0iMjQ0NTIiPjwvcGF0aD48cGF0aCBkPSJNNDY1LjgyNTU0OSAxNzEuMjQ4OTM2aDc0LjQ3ODkxdjUxNC4wNTU5NzZoLTc0LjQ3ODkxeiIgZmlsbD0iIzEzMDc1NCIgcC1pZD0iMjQ0NTMiPjwvcGF0aD48L3N2Zz4=;" parent="1" vertex="1">
          <mxGeometry x="88.12" y="350" width="61.75" height="25" as="geometry" />
        </mxCell>
        <mxCell id="OMXCkgNobbkZRB5gCNSG-3" value="" style="shape=image;aspect=fixed;image=data:image/svg+xml,PD94bWwgdmVyc2lvbj0iMS4wIiBzdGFuZGFsb25lPSJubyI/PjwhRE9DVFlQRSBzdmcgUFVCTElDICItLy9XM0MvL0RURCBTVkcgMS4xLy9FTiIgImh0dHA6Ly93d3cudzMub3JnL0dyYXBoaWNzL1NWRy8xLjEvRFREL3N2ZzExLmR0ZCI+PHN2ZyB0PSIxNzEwMDAyNzE0ODU0IiBjbGFzcz0iaWNvbiIgdmlld0JveD0iMCAwIDIyNzYgMTAyNCIgdmVyc2lvbj0iMS4xIiB4bWxucz0iaHR0cDovL3d3dy53My5vcmcvMjAwMC9zdmciIHAtaWQ9IjI2Njc4IiB4bWxuczp4bGluaz0iaHR0cDovL3d3dy53My5vcmcvMTk5OS94bGluayIgd2lkdGg9IjQ0NC41MzEyNSIgaGVpZ2h0PSIyMDAiPjxwYXRoIGQ9Ik05NDMuNTU5NTI1IDM5NC4xNjE0ODNhMTguMTYyOTYxIDE4LjE2Mjk2MSAwIDAgMSA1LjEwODMzMiAxLjQxODk4MSAxNy41OTUzNjkgMTcuNTk1MzY5IDAgMCAxIDQuMzUxNTQzIDIuOTMyNTYyIDUzLjYwNTk2MiA1My42MDU5NjIgMCAwIDEgNC42OTg0MDUgNS4xMDgzMzNsMTMwLjg5MzE0NSAxNjUuNDUzMjI0Yy0wLjUzNjA2LTUuMjY1OTk3LTAuODgyOTIyLTEwLjQzNzM5Ni0xLjEzNTE4NS0xNS4zODgwNjVzLTAuMzc4Mzk1LTkuNjgwNjA2LTAuMzc4Mzk1LTE0LjA5NTIxNHYtMTQ1Ljk2NTg4MWg1Ni4zNDkzMjZ2Mjc1LjUzNDY0NGgtMzMuMjk4NzYyYTMwLjUyMzg2NSAzMC41MjM4NjUgMCAwIDEtMTIuNDU1NTAzLTIuMjcwMzcxIDI2LjcwODM4MiAyNi43MDgzODIgMCAwIDEtOS44MzgyNzEtOC4zMjQ2OWwtMTI5Ljk0NzE1Ny0xNjMuOTcxMTc3YzAuNDA5OTI4IDQuNzYxNDcxIDAuNjkzNzI0IDkuNDU5ODc2IDAuOTQ1OTg3IDE0LjA2MzY4MnMwLjQwOTkyOCA4LjkyMzgxNiAwLjQwOTkyOCAxMi45NjAwMjl2MTQ3LjcwMDE5MWgtNTYuMzgwODU5di0yNzUuNjkyMzA4SDkzNi41Mjc2ODRhNTQuMjY4MTUzIDU0LjI2ODE1MyAwIDAgMSA3LjAzMTg0MSAwLjUzNjA2ek0xMjM2LjA5MDQxMSA0NzIuOTkzNzh2MTI0LjQyODg5N3EwIDE0LjU2ODIwOCA2LjYyMTkxMyAyMi41MTQ1MDRhMjQuMDI4MDg0IDI0LjAyODA4NCAwIDAgMCAxOS40ODczNDMgNy45NDYyOTUgNDEuODEyNjUgNDEuODEyNjUgMCAwIDAgMTguMDY4MzYzLTMuOTczMTQ4IDY3LjM4NTg0NyA2Ny4zODU4NDcgMCAwIDAgMTYuMzY1NTg1LTExLjE2MjY1M1Y0NzIuOTkzNzhoNTguNjE5Njk1djE5Ni4xMDMyMjFoLTM2LjI5NDM4OWExMy44NDI5NTEgMTMuODQyOTUxIDAgMCAxLTE0LjQxMDU0NC05LjgzODI3MWwtMy41NjMyMi0xMS4zNTE4NTFhMTE3LjY4MDg1MiAxMTcuNjgwODUyIDAgMCAxLTExLjczMDI0NSA5Ljk2NDQwMyA3My41MzQ3NjYgNzMuNTM0NzY2IDAgMCAxLTEyLjk2MDAzIDcuNTM2MzY3IDc3LjQxMzMxNSA3Ny40MTMzMTUgMCAwIDEtMTQuOTc4MTM2IDQuOTgyMjAxIDc4LjgzMjI5NyA3OC44MzIyOTcgMCAwIDEtMTcuMzc0NjM4IDEuNzk3Mzc3IDY4LjU4NDA5OCA2OC41ODQwOTggMCAwIDEtMjguMzc5NjI3LTUuNTgxMzI3IDU4Ljg3MTk1OSA1OC44NzE5NTkgMCAwIDEtMjAuOTA2MzI1LTE1LjU3NzI2MiA2OC4zNjMzNjggNjguMzYzMzY4IDAgMCAxLTEyLjg2NTQzMS0yMy42NDk2ODkgOTcuNzUyMDQ4IDk3Ljc1MjA0OCAwIDAgMS00LjM1MTU0My0yOS44OTMyMDdWNDcyLjk5Mzc4ek0xMzkzLjA2MTI4IDY2OS4xNjAwNjdWNDcyLjk5Mzc4aDM2LjMyNTkyMmExNi4xNzYzODcgMTYuMTc2Mzg3IDAgMCAxIDkuMTc2MDc5IDIuNDU5NTY3IDEzLjI3NTM1OSAxMy4yNzUzNTkgMCAwIDEgNS4yMDI5MzIgNy4zNzg3MDNsMy4xNTMyOTIgMTAuNTk1MDYxYTEwNC43NTIzNTYgMTA0Ljc1MjM1NiAwIDAgMSAxMC4xODUxMzMtOS40NTk4NzYgNjUuNjgzMDcgNjUuNjgzMDcgMCAwIDEgMTEuNDQ2NDQ5LTcuMzc4NzAzIDYyLjA1Njc4NCA2Mi4wNTY3ODQgMCAwIDEgMjguODUyNjIxLTYuNzE2NTExIDQ2LjAzODA2MSA0Ni4wMzgwNjEgMCAwIDEgMjkuNDIwMjEzIDkuMTc2MDc5IDU3LjIwMDcxNCA1Ny4yMDA3MTQgMCAwIDEgMTcuNjU4NDM0IDI0LjQ2OTU0NSA1OC45OTgwOTEgNTguOTk4MDkxIDAgMCAxIDEyLjAxNDA0Mi0xNS41MTQxOTYgNjQuMzkwMjIgNjQuMzkwMjIgMCAwIDEgMTUuMzI0OTk5LTEwLjM3NDMzIDc0LjcwMTQ4NCA3NC43MDE0ODQgMCAwIDEgMTcuMzc0NjM4LTUuODY1MTIzIDkwLjI3ODc0NiA5MC4yNzg3NDYgMCAwIDEgMTguMjg5MDkzLTEuODkxOTc1IDgyLjkzMTU3NiA4Mi45MzE1NzYgMCAwIDEgMjkuODYxNjc0IDUuMDEzNzM0IDU2LjkxNjkxOCA1Ni45MTY5MTggMCAwIDEgMjEuODUyMzEyIDE0LjU2ODIwOCA2My41Mzg4MzEgNjMuNTM4ODMxIDAgMCAxIDEzLjMzODQyNSAyMy40NjA0OTIgMTAwLjkwNTM0IDEwMC45MDUzNCAwIDAgMSA0LjU0MDc0IDMxLjUzMjkxOHYxMjQuNjE4MDk1aC01OC42NTEyMjl2LTEyNC41MjM0OTZxMC0zMC40NjA3OTktMjYuMDc3NzIzLTMwLjQyOTI2NmEyNi42NzY4NDkgMjYuNjc2ODQ5IDAgMCAwLTE5Ljc3MTE0IDcuODUxNjk2cS03Ljg1MTY5NyA3Ljc4ODYzMS03Ljg1MTY5NyAyMi41Nzc1N3YxMjQuNjE4MDk1aC01OC41NTY2M3YtMTI0LjYxODA5NXEwLTE2LjgzODU3OS02LjYyMTkxMy0yMy42NDk2ODljLTQuNDE0NjA5LTQuNTQwNzQtMTAuOTEwMzktNi43Nzk1NzgtMTkuNDg3MzQ0LTYuNzc5NTc3YTMzLjIwNDE2MyAzMy4yMDQxNjMgMCAwIDAtMTUuMDQxMjAyIDMuNTYzMjE5IDU1Ljg3NjMzMiA1NS44NzYzMzIgMCAwIDAtMTMuMzM4NDI0IDkuNjQ5MDczdjE0MS44OTgxMzR6TTE3NzUuMDgyNTg5IDU3Ny4wNTI0MTF2OTIuMTA3NjU2aC02My45MTcyMjZ2LTI3NS41MzQ2NDRoOTcuMTg0NDU1YTE2MC4zNzY0MjQgMTYwLjM3NjQyNCAwIDAgMSA1MC4wNDI3NDIgNi44NDI2NDQgOTYuMTQzODY5IDk2LjE0Mzg2OSAwIDAgMSAzNC40MDI0MTQgMTguOTE5NzUxIDczLjY2MDg5OCA3My42NjA4OTggMCAwIDEgMTkuOTYwMzM4IDI4LjU2ODgyNCA5Ni41ODUzMyA5Ni41ODUzMyAwIDAgMSA2LjMwNjU4NCAzNS41Mzc2IDEwNC40MDU0OTQgMTA0LjQwNTQ5NCAwIDAgMS02LjYyMTkxMyAzNy44Mzk1MDIgNzUuOTMxMjY4IDc1LjkzMTI2OCAwIDAgMS0yMC4yNDQxMzQgMjkuNTE0ODEyIDk0LjU5ODc1NiA5NC41OTg3NTYgMCAwIDEtMzQuNDk3MDEzIDE5LjE3MjAxNCAxNTcuMzQ5MjY0IDE1Ny4zNDkyNjQgMCAwIDEtNDkuMzQ5MDE4IDcuMDMxODQxeiBtMC00OC4yMTM4MzJoMzMuMjY3MjI5YzE2LjY0OTM4MSAwIDI4LjYzMTg5LTMuOTQxNjE1IDM1Ljk0NzUyOC0xMS45MTk0NDRzMTAuOTczNDU2LTE4LjkxOTc1MSAxMC45NzM0NTUtMzMuMjY3MjI5YTQ5Ljc5MDQ3OSA0OS43OTA0NzkgMCAwIDAtMi44Mzc5NjItMTcuMjE2OTczIDM1LjAzMzA3MyAzNS4wMzMwNzMgMCAwIDAtOC42MDg0ODctMTMuMzM4NDI1IDM5LjEzMjM1MiAzOS4xMzIzNTIgMCAwIDAtMTQuNTY4MjA5LTguNjA4NDg3IDY1LjMwNDY3NSA2NS4zMDQ2NzUgMCAwIDAtMjAuOTA2MzI1LTMuMTUzMjkyaC0zMy4yNjcyMjl6TTIwMzIuNjQzNDY5IDcyMC4wNTQxOTdhMjEuMDk1NTIzIDIxLjA5NTUyMyAwIDAgMS02LjMwNjU4NCA4LjU3Njk1NCAyMC44NzQ3OTIgMjAuODc0NzkyIDAgMCAxLTEyLjEwODY0MSAyLjc0MzM2NGgtNDMuOTg4NDIxbDM3LjgzOTUwMi03OS4zOTk4ODlMMTkyOS44MTQ2MjEgNDcyLjk5Mzc4aDUxLjgwODU4NWExNi41NTQ3ODIgMTYuNTU0NzgyIDAgMCAxIDEwLjU5NTA2MSAzLjE1MzI5MiAxNi4yMzk0NTMgMTYuMjM5NDUzIDAgMCAxIDUuMjk3NTMgNy4xODk1MDVsMzIuMTMyMDQ0IDg0LjUzOTc1NWExODYuMDQ0MjIgMTg2LjA0NDIyIDAgMCAxIDcuMzc4NzAzIDIzLjM2NTg5M2MxLjI2MTMxNy00LjAzNjIxNCAyLjY0ODc2NS04LjAwOTM2MSA0LjE2MjM0Ni0xMS44ODc5MTFzMi45NjQwOTQtNy44ODMyMyA0LjM1MTU0Mi0xMS45MTk0NDNsMjkuMTM2NDE3LTg0LjE2MTM2YTE0LjE4OTgxMyAxNC4xODk4MTMgMCAwIDEgNS45NTk3MjItNy4yODQxMDQgMTcuMDI3Nzc2IDE3LjAyNzc3NiAwIDAgMSA5LjQ1OTg3NS0yLjkzMjU2Mmg0Ny4yOTkzNzh6IiBmaWxsPSIjNEQ3N0NGIiBwLWlkPSIyNjY3OSI+PC9wYXRoPjxwYXRoIGQ9Ik00MTcuNDMyNzc3IDMwMy45NzczMzZMMzAwLjM1MTA1IDI0NC44ODQ2NDYgMTcxLjgyMjg3NCAzMDkuMDIyNjAzbDEyMC4yNjY1NTEgNjAuMzg1NTM5IDEyNS4zNDMzNTItNjUuNDMwODA2ek00NzEuMTMzMzM3IDMzMS4wNjQxMTNsMTIyLjc1NzY1MyA2MS45OTM3MTgtMTI3LjM2MTQ1OSA2My45NDg3NTktMTIwLjQ1NTc0OS02MC40ODAxMzggMTI1LjA1OTU1NS02NS40NjIzMzl6TTYzNS4xMDQ1MTQgMjQ1Ljc2NzU2OGwxMjYuMTMxNjc1IDYzLjI1NTAzNS0xMTIuODI0NzgzIDU2LjYzMzEyMi0xMjMuMDA5OTE2LTYyLjA1Njc4NCAxMDkuNzAzMDI0LTU3LjgzMTM3M3pNNTgwLjgwNDgyOCAyMTguNTIzMTI2bC0xMTMuNTUwMDQtNTYuOTQ4NDUxLTExMi4zMjAyNTYgNTYuMDY1NTI5IDExNy4wMTg2NjEgNTguOTk4MDkxIDEwOC44NTE2MzUtNTguMTE1MTY5ek00OTIuMDM5NjYyIDcwNy40NzI1NjN2MTU0Ljk1Mjc2MmwxMzcuNTQ2NTkyLTY4LjY0NzE2NC0wLjEyNjEzMi0xNTUuMDE1ODI4LTEzNy40MjA0NiA2OC43MTAyM3pNNjI5LjM5NzA1NiA1ODQuNjUxODQ1bC0wLjE1NzY2NC0xNTMuMzc2MTE3LTEzNy4xOTk3MyA2OC4yMDU3MDN2MTUzLjQzOTE4MmwxMzcuMzU3Mzk0LTY4LjI2ODc2OHpNNzk0LjUzNDk1MSA1NTUuOTI1MzU2djE1NS41NTE4ODdsLTExNy4zMzM5OSA1OC41MjUwOTctMC4wOTQ1OTktMTU0LjgyNjYzIDExNy40Mjg1ODktNTkuMjUwMzU0ek03OTQuNTM0OTUxIDUwMS41MzEwNzF2LTE1Mi40MzAxMjlsLTExNy41NTQ3MjEgNTguNDMwNDk5IDAuMDk0NTk5IDE1My42OTE0NDUgMTE3LjQ2MDEyMi01OS42OTE4MTV6IiBmaWxsPSIjNERBQkNGIiBwLWlkPSIyNjY4MCI+PC9wYXRoPjxwYXRoIGQ9Ik00NDMuNDc4OTY4IDQ5OS40ODE0MzFsLTkyLjY0MzcxNS00Ni42MDU2NTN2MjAxLjMwNjE1MlMyMzcuNTA1OTQzIDQxMy4wODEyMzQgMjI3LjAzNzAxNCAzOTEuNDE4MTE5Yy0xLjM1NTkxNi0yLjgwNjQzLTYuOTA1NzA5LTUuODY1MTIzLTguMzI0NjktNi42MjE5MTNDMTk4LjI3ODk5MiAzNzQuMTM4MDggMTM4Ljc0NDg0MiAzNDMuOTkyNjA5IDEzOC43NDQ4NDIgMzQzLjk5MjYwOXYzNTUuNzg1OTIybDgyLjM2Mzk4NCA0NC4xNDYwODZ2LTE4Ni4wNDQyMnMxMTIuMDk5NTI2IDIxNS40MzI5IDExMy4yNjYyNDMgMjE3Ljc5Nzg2OSAxMi4zNjA5MDQgMjUuMDM3MTM3IDI0LjQwNjQ3OSAzMy4wMTQ5NjZjMTUuOTg3MTkgMTAuNjI2NTk0IDg0LjYzNDM1NCA1MS45MDMxODQgODQuNjM0MzU0IDUxLjkwMzE4NHoiIGZpbGw9IiM0RDc3Q0YiIHAtaWQ9IjI2NjgxIj48L3BhdGg+PC9zdmc+;" parent="1" vertex="1">
          <mxGeometry x="162.37" y="350" width="55.63" height="25" as="geometry" />
        </mxCell>
        <mxCell id="OMXCkgNobbkZRB5gCNSG-6" value="Script" style="text;html=1;align=center;verticalAlign=middle;resizable=0;points=[];autosize=1;strokeColor=none;fillColor=none;fontStyle=1;fontFamily=Helvetica;fontSize=16;fontColor=default;" parent="1" vertex="1">
          <mxGeometry x="310" y="347" width="60" height="30" as="geometry" />
        </mxCell>
        <mxCell id="b_-KemsR6YXczpAIBUsM-5" value="" style="html=1;shadow=0;dashed=0;align=center;verticalAlign=middle;shape=mxgraph.arrows2.arrow;dy=0.64;dx=13;direction=north;notch=0;fillColor=#7EA6E0;strokeColor=default;" parent="1" vertex="1">
          <mxGeometry x="204" y="320" width="30" height="20" as="geometry" />
        </mxCell>
        <mxCell id="BO_K4SUgXmc4jK09iy1Q-9" value="" style="shape=image;verticalLabelPosition=bottom;labelBackgroundColor=default;verticalAlign=top;aspect=fixed;imageAspect=0;image=data:image/png,iVBORw0KGgoAAAANSUhEUgAAAJMAAAAsCAYAAABheYq1AAAXZElEQVR4nOWceXxV1bn3v2vvM+ZkOEkOGQiBkAABroJoBUEQrVVBsehtq9ZaW33V1ltv9VpfrXWqrXysVm9te6HU91oVHFoVrVZEfZ3uZRCCDDKGISRhyHAyn3nYe6/7xw7n5JCEDASCn/v7A072WWvtZ+39W896pnVEJBqTfMUhv1iC2PG34RZj2CGtaYhvPAH5U4bl/sqw3HUoEWmHXSuGW4rTAkIaEAsO2/2/+mQ6shFhaMMtxekDIzZst7YMtmNEM2gKxalsDrO9Mcghf4xg3MCuCvJdVsbnODkjL43CdBs5zkHfpk/IqvcRJ230ryDk8FktA3rLHVGdpmCcd/a2snJfK1HdACno6W2+X9VufpBgswh+OCWPC8dmkWlTybRbUIaCAaFmRPvBIRjoJMGZDRJkuAUlowgZbARpJL6WUqJkFSNDLUgtDKoD9MiJLQ7VdsJiDxb9IlNYM9jhDfFmZQvrD/uJG0fZ3zORUiAgqhk8u6WBF7Z5OavAxaVj3Uz0pFHitp+Y9HUbkfHgaauZlNGzAYm+800sX3+Y+Af3QdSXbCAN1LNuRN/9d+g4hDrxSvQ976a2GRAEWBxDIfqg0CeZmkOmJvrH3laaQoOzTYQwX3dMl1QcCfBlQ4hyj4MLx2RxSambbMcgt8G2aoR+Cm0EaYArD5GWA1oUGWruNHglWF2I9AKQBjLQAPEIsmErErovOGsaIs2D9B3B2PsuMtCAyBqFUnYxsq3a1FTttaBHByafUMCeOTRzHQSO+xbbIhp/3FjPukN+wppxvKYDQlQ32NYYYn9rhI11AW6dls/4XOeANYwMtw2Z8S2lTJC+Nyjj56FO/CbSdwTsmUjvDrQvX0GkF2D9xq+RoTYEoB/4CH3/R6jFM5GA3lKVHMTqQp16PTLYBL7DqFNvQO54DeFwg8ONGHUuhNtNooYHSiYBTs+A5z5UOC6ZHv3sIJsagpwsky4UN1h/2E/FET+/unAMc8cMYFUF6hDBBhgi6SyqQjCq4bCqvRBLoBRMQd/+V/TadSAEQpha13bF79HW/Q798AYEiimT1MHpRnQRT+pRrLPuAamhbX4BtDgioxAUC0bDNpSOwxjbX8MINIChIZSBaWyJgnC6T/hZDBY9SqsZkhe+9PJFQ6BXA3uoIAHdgAc+rWFheS63TsvH3Z9tr/0gBBoGfV9DSlqDGt6Axj+2tPLy503sb4pw7/wifr2wGL0bRyWy/RDqmdcj3CUY9VuQ7QcRzmykUDEObUCYswHoUcvZLnkCGQ+iffQQAgMpUsc3SWggACkGEbXJKRt4nyFEjxJ/ftjPK9ubzPmdCutWmP+8t6+NxRvrqfP3ww4KeiHSNujbra8KcOer1cx7eie/fPsgTpuCTRUsW+eltx1d2/5XtIrFoEVRz/gO6tTrQbWaJFLUPu9r1G8GRUV4xnX/8hjyikGQSYyeNeA+Q4luEnuDcV7f3Wx6bH3YEEONuCH5pMbH0k0NNAbjvTeUEvQYGIOz43RD8sSqw7y5qZUmv8aZRS5+8+0xnFOSjjQgEu95XMVdgmyvRd/xGvqelYiMQmS4HaP9IOr020Gxmt6UIxvZwyrUd76JPLQe9Wu3IjwTUmNChgYIUCzm/3KAc5NA/tSB9RlidCPT50f87G2JnDQ7qS9EdYPVtT7+WFFPvPte0wkJRhwYHJn+WtFCRXXAHElK5k7M5KKJmYxy20zvWu15EQnPBKyXPI7t28tQy69E37kCwq3oq58EoWBduBTrvKcQuZ2aR7GCaiWhdhQFfc9KZM1qLOf9FJGeDxYHQqjISDvy4FqslyzCeuV/INxj+j8hKZBCQmbxoJ7HUCHFOIkbkuq2CIGYPlzyAKBJyWe17ZxfncH8cdndG0gJhj7oaO+6Kh8dYXOO5QVOvjvdg82iUNkYRhXgtCloPRBZ37cKvfIdU2soFlBtCCGQwUa0tU+DbmpTodoQioq27hlAIix2YituAosdIQT6rrfQtv8NYbETXb7A3CoVC9q2V9G2vAjITpL1d6szwDMZrGmDeh5DhRQyVTaHWXtosAGzoYMEkIJFaw5T7nFS6j4mECc1ZDw0KHPuv/Z08FllR4KHI7NtTB6ZRmtAo7Ejzvwp7l4dRKFYOreh/n0nVGvys7XLHBQVoTg7rzu7jKGCkvy7v5BCQUy5YcD9hhoJ6kugJRzHGzxNkqadTuT/29zYPcalxxGDyI7HdYNNNUGqmsz4jSpg9rhMnFaFXXUh4rrB92aMQB/G/NZgIKxOyC4dbjG6kElCRJMYp9GDlMAOb5DN9YHULwwN4oEe+xwPrUGdjys7En87rAq3XJCPogje2tpKJC5NI/z0eQT9Q+HZYEsfbimSZDKkpC0SHzbDuze0R3XWHvanvmAjPqi6nX2NYVbvTW7jxTk2CjKt7GkIsW6fn2+dnYvT+tWqypGKBcbMBVvGcIuSJJNmyP7Fd04xpITtjUF2NoWSFw0dqQ0w1QB8vKuDWOeWKaVkRmkGEsl/7/VzoCnC49eOQR5HLemGJBLXCUYNIjEd3ejf0tOlJBI38IU1wjEDTU/dtnVDEozqxI+5joS4ZhCM6kTjRopsUkriuiTiLMLIGNVjGMcwDCKRCOFwuNu84vEYPp+PQGDgGr43JCxGKSGqnW56yUS9P8ZhX5Qz8jq9FaEg1IGlGqyqYMXmlpTI9I8vKqCmOcaKTc0snJaDQxE9Rq6jcYOth4Ks2efjbxUt7G+KUOqxc+OsPL51Ti4j3bYeQ3KaIamsD/H5/gDPrW5k66EgBVk2br8on5tn55OfaWVfY4T1B/z87sM6Fn1rDPP+yW3GwiXUtER45sN6nl/r5cLyLF66dTyZTjM4KiU89NZBvghoPD0hxtQ8Oq9Lamtrqampobmpifc/eB+7zcavH1tETk4OAOvWruX999/nhReex+12s3jxEuZccMGAnmdPSL4RAdYhKTIaekR0yRF/jJgusanCXIX9iDh3xeaDQfY2hBNkyXVZOWdsBo//4xBNfo1F/5yPy959TF9Y448fN/CXNV7GeuxcPDmLtCqF9VV+7l9Ry676EL/9TgkZjtS+gYjGi+ubeXGNl11HQswozeDe+UW0BjX+/Fkj7SGdCfkOXtnQzPqqAGM9dnLSLAkzozkQ51fvHOa1jc3ohmRnXZDK+hDTSzMQAlZua2PpZ41c+71LKS1NplHC4TBLl/6JPy1ZQiwWQ1VVbrr5ZtxuN4FAgGXLlvHkE7+hsbERgKamJn7wgxvZ+uU2MjNPrOIgQSZViJNaEXmiWH/Ez+XjsylMt5mlFmJgsi79NDWPd06Ji001fl5c5+W2uQVMHtk9RhOK6fxo2QFWbW9j9vhMnrqmhLI8O59V+rjyD7sxJPx9cyuPLCxOIVNzQOOOl6r4aHcHwajB/DPcPLKwmCmjXASjOhkOlefXeNEMSTBqbm1nj3FROsKs75ISKqoDrNrehpmIEDisCqNz7agKVBwIcPffashw5zB37lwyMpL20r69e/nwww+JxUyTJTs7m6uvvhqfz8cjDz/M8uXLCIfNRXV06+vo6KC1tfWEyZSwmSwK5Lusx2s7rKhqCyeDqYoFbK5+9ZNSYlHgsz2+hFaSUjJ2hIMrfreL0Tl2bp6dZ2q8LtANyY+WHeDtLa2k2RSuP89DeaETq6pQnJMs6otqMsVp8YU1fvJSFe982UYwalCcbeOWuflMKXYhBGQ4VMoLnASiRoJIdovgzGIXnkxb55g6m2oCicAqQEGWjfxMK5/s7uCWF/ZzpD1OfkEBc2bPScqs62zYsIE9lZWJa/n5+Zx33kyefOIJXnppOQ8++BCZmZkJIglhbu052T0EhweIBJkEArtFOW1PGGgGhI/mzFQ7OPo3eSEEUU1S2xxJuf6f/91IhkPlrTsmdtuiAF7b2GIGN4ESj4Mbz89LBEn3NCSdgTOKnNiOFv9pBr9ZVcc7W9uQ0rTTrj4nhwVTshN9pZTohsToYrwXZNmYVpwGndcMKWjpEu+TUuKwKvzguf188w+VVDZEkFIyZswYikePTrSLRCK8++4/MDpzlkIISkpKWL5sGW+88TofffQx/3b33SiKkjL2qOJiMrOy+vU8j4fEXiEEOC0KVlUxa7tPM0hJUi7FgrS6+h0Bf2drK10dLyEEYz12Xr5tAo4eQgF1bVFWbGqmOWC+0AvLM5GGRAg43BHjob8fQghBYZaVuy8ZiTvNgpSwsSbAG180J8bJTrPwna95Uu4dikuqm1JznyPSLUwemZa4ZlVh2mgX2WkW2kIaQgg2HvCTmaaiKgJ0iaqq3Hffz1PkbmlpYfXq1V2emcTr9bJ48X/w+9//galnnUVjYyN+vz+l3/0/v7+fT/L4SHmS+elWRmcNX0H68SCBQKyTTEJ0Fo71TScB/P+d7XTdjEa6bTxxTQnTRve8Ve7zRvi8KpkILi9wEtMkFdUBfvZKNXsbwkwqdPLkd0q47Ew3FlUQiRs8v8bLwZZkyOK8snTOK0uN/zR0xHhve3vKzMryHBS6k8/dqiosmJLNZWe4EQLuvrSQJ68t4caZedgt5pxdLhfTpk1LGXvVe+8RiaRq4AMHqvn1Y4u4bN48FEXhT0uWoGlJracoCpdedlmfz7E/SLFix2Q5mJLvYl9rpLf2wwcJjYGjcTAFVIupTvsIVxsSDrXG6Eq8ySOdzCzNoKcwUUyTfF7lp7XLNlPfEeOOlw+wbr+fuvYY/35dCbPHZ3LGyDQUxTRkY7rBu1+2pdhl15zrSYlFSSmpa4+xtyGcuGZTFa4+J9csiOu8JoCmQJz93jDXnuvhwQXFBKI61z+7l/awjpSS791wA1Zrqo27YsUb3ebz2KJFXHnllSiKQltbG88+++eU8Me8efNxu4emOjOFTDZVUJRhI82iEBrCmu+hgcTfRTNJxWLGm/qo+9EN2S1+5km3ovZiHIZiOhUHkoE8IQSPrzxC6QgH918+iq9PzsLjsnQarsk2+xsjdIQ7a5I6Mf2Y1IzNqvDcaq9JsM7OFlV0I3ZEM3hyVR1eX5zfXTsWh1WwoTrE2n3J7enxx3/TTfbq6uoUuRcsWMD3v//9hI20Zs1qOjqS6SRFUfjFAw/0WfveX3Tzr79WmM7KjFaq2gYeYT6pEBCIJ70bYctAWp0Q9R+nExjIbtHfNJvo8dyeBA63x9h8MDVVc9PsPJbcWIamGd21mZR0RHQefOsQ8ph6wvxjTIZNNQFe3dCU8vIURZCVpibGCsUN7n29lg92tPHkNSWcU+LCblF46v26hOYqLi7Gbk96lLFYjPdWrqS5pSU5b8Pg2uu+i6omnYs3Xk/VXEVFRWR38eI6OjrQ4nFycnMHRbBu67M028G0gnR6qQ8bPkiRGlR1j4X0kf3o172ipK49TvyYki3dkLz7ZStXPLOblkBqlefGmgD1HbEet8X93gh3vVrN1oPd0xJd0yO1LVH+ZfkBxo5ILacRgN1ivoa6jhgPrKjllfVN3H95EdfP8CCEoLYlyse7kxrFZkuS1Ofz8crLL3P77T8mHkumw4QQTJw4MfF3a2sr+/btTVlY8y+/HI/HPM3S0tLCgw88wAcffpDwBgeKHpX9tybl9lptOGzo9DYTyBoFrvw+u6mKwHKM519RHeBAUyTxYH1hjT992sBtL1YxqdDJxZNS3eQ99WGWfFxPIKJ3cfFh7X4/d/21hve2tzP/zO52x3OrG7Eogs21Qe55rYZw3OCnFxemuA2GlDT542yuDfLzNw7yl7VN/Oqq0fzowgKUTu3wySFnCgm8Xi+vvvoKWzZvZtFjj/Hoo7/kuuuuQ9dTV0heXl7i865dO2ltS62Znzp1KhkZGYSCQR568AHWrVvHyJFFKaGDgaDHMHJxpp3bzynkmfVHTnkdeO+Q5KZ1EVe1m4chhWoeK+oFqiKYMsrFf+3xcdSeaQ1q3PlqNTedn0ckbvBJZQdr9vn47gwP91xWREV1gE8rfcQ6qy2DMYMlnzawqTZAeUEaNtXUFhurAyDguR+WMS7PwasVyW1GCMHj7x3h7S2tNPriaAa89ZNyGn2pWi8UM/jmH3YTiOq0BDSev2kc3zwrJ7mYSy6ktRGEWJvoEwwGue/ee3G73dTX13Prbbdxzz3/l6VLlybaWCyWlC2uubmZ6DGe3osvvMDuXbvZULGBJq+Xhx95hBkzZgzahuo1J/HPk3J5aZuX5vBpUiwnBXlpx4Qt0gvNGmvt+GXGj141mmc/ayTapRR3c22QLbXVgMRmUbhvXhF3zxuJTRVY1Azmnenm7S1tibXUHtL5YEcHH+7sMLdOKZlS7OLZH45j6ignvrDBxEInlfVJT609pLOuKoDbqfL67eVMLHQSiOopTqiUsPVQiCK3lTf+pZxZ47qkNDwT4aybGd2+JeUsn5SS5uZmgsEgP7vnHn72s3tSbCgwydQVHo+nW5uKigoqKipwOBy8/c47zJlzwQkZ473qMwV45rJSMmwDS6ieLAiFbikPiqaDte+0isMi+M+bx1GSa0sY3lJKsl0q54/PZPkt47l/QRF2i4IQgpFuG48uLGbhtGyynKnzt6mCsjwHt1yQz6p/m8RZo9IAQYZDZckNpZTk2hP3sKmCaaPT+MvN45g9IQMhBKUjHFx7rgdr51xsFsFFEzN56bYJnD/+KJEEMrsUzr4V3GNYeNVVTJo0OZH6SE9PZ9q0s1m8ZAm/+MUDCZLY7XZcLhdlZWXMnDkzJXQwe/YcZs6alRhDVVWKioq4+BvfoL6hkQsumHvCXp043i/HheIGr+xo4rVdzYR6Of5zqqAIWDy/jDPzUhOyctW/Ihq39WuMHYdD/GWtF39Yw6IKLijP4pqv5aKIHg5NSrMOafnnTaw/4EfXJYoiKM628/2ZIxida+vWx7SjfLzxRQvBqE5xjp3/MyePouxUjVBZH2b55168vjijc+3cfenI1IqFEf8EZ/3QXCydOHDgAE899Vu0uMakSZO48667utk2d975U8aWjOXyK66grKwsZZsD8Pv9PPzwQwQCATIzMll41VXMmjWrmxYbLI5LJoCWUJzFm+r5pNqH1s9isJOBNKvCkvlljMs55nDBvndhzW/7fVhUSrPOyKIIFKXvAy5CmJ6ebpiEtijiuNWoAnN8Q5qaqbe2hjTHtFkEUpIIK8ji8xHTboac7gc1dV3HMAwsFkuPWsQwdJR+lObE43FUVR20od0b+hwtN83Kj88uZFy2g6E61z8YTPQ4yewhIUvJxeaZsX6KJoSZgO1H8Bww2yhCYFUFah9EAlMMVTHbH6/t0TETMqgqctK3Eefd1SORzCYqVqu11+2oP0QCsFqtQ04k6OfPEOa5rDy7oIwM2/DVO80pzmKEs4cSGasTce4dJqG+cuisKbJlIKb/FDHjX8GV13e30xT9pqciBH+/dhJT89JwWE5toYrLquB2qr1HKcouNT27rxikMxtRMA0W/BkmXjXc4pwwBsQKuyr45YWjWTghm+yetpyThBK3vXOb7U2wTMT0nyDTRpwymU4INhcUn4+Yfgdc9jRkFg23REOCPg3wnuCL6uxqCrF8u5cd3lDnocWhD24KzKj3LWfn8+1JuYmIcI+Ih+DIBtj2MrTuO3W/4NJPSECoDhg1HcbNg9xySMvltBLyBDEoMh1Fa1ijMRDj6fV17G4JIYb6wUjJL+YUc1FJVmoqpdf2OoTbwHcYufoxRLBpaOUZMAQSA+HIgak3mkSyZQ7rTwWeTJwQmY5C7zxz92ZlCx9WtxONS3QkhkG/jloLTJtMVUz3O9th4ZrJHi4fl4PLNkj7TBoQqEdWfwx7V0KkAyF187qhc1I8U6GCUJGKapbHTFgA4+ab29gw/gruqcKQkOlY7GwKsb81TFVblLpAFM2QROKSuCFNcnW62zaLwKYKXFaVfJeNsmw75Z40xmbZExHiIUNHLbTsh7Yq83PUD7EAMuZHxMOmVjM6yUZn4Ofor7nRebwKxfxfKOZRK9UO1nRT01jTzORzznhzC8sea7b7X4T/Acw2yxMZ0g1IAAAAAElFTkSuQmCC;" parent="1" vertex="1">
          <mxGeometry x="234" y="353" width="66.82" height="20" as="geometry" />
        </mxCell>
        <mxCell id="QU5AKRUrArluOr-NIRwP-1" value="" style="rounded=0;whiteSpace=wrap;html=1;fillColor=#fff2cc;strokeColor=#d6b656;" parent="1" vertex="1">
          <mxGeometry x="21" y="530" width="530" height="170" as="geometry" />
        </mxCell>
        <mxCell id="QU5AKRUrArluOr-NIRwP-3" value="主模块" style="text;html=1;strokeColor=none;fillColor=none;align=center;verticalAlign=middle;whiteSpace=wrap;rounded=0;" parent="1" vertex="1">
          <mxGeometry x="16" y="500" width="75" height="30" as="geometry" />
        </mxCell>
        <mxCell id="QU5AKRUrArluOr-NIRwP-4" value="" style="rounded=0;whiteSpace=wrap;html=1;fillColor=#ffe6cc;strokeColor=#d79b00;" parent="1" vertex="1">
          <mxGeometry x="31" y="560" width="240" height="130" as="geometry" />
        </mxCell>
        <mxCell id="QU5AKRUrArluOr-NIRwP-2" value="图元渲染模块" style="rounded=0;whiteSpace=wrap;html=1;" parent="1" vertex="1">
          <mxGeometry x="54" y="570" width="96" height="30" as="geometry" />
        </mxCell>
        <mxCell id="QU5AKRUrArluOr-NIRwP-5" value="图元连接模块" style="rounded=0;whiteSpace=wrap;html=1;" parent="1" vertex="1">
          <mxGeometry x="52" y="610" width="98" height="30" as="geometry" />
        </mxCell>
        <mxCell id="QU5AKRUrArluOr-NIRwP-6" value="有向图解析模块" style="rounded=0;whiteSpace=wrap;html=1;" parent="1" vertex="1">
          <mxGeometry x="52" y="650" width="98" height="30" as="geometry" />
        </mxCell>
        <mxCell id="QU5AKRUrArluOr-NIRwP-7" value="流程建模" style="text;html=1;strokeColor=none;fillColor=none;align=center;verticalAlign=middle;whiteSpace=wrap;rounded=0;fontStyle=1" parent="1" vertex="1">
          <mxGeometry x="31" y="530" width="246" height="30" as="geometry" />
        </mxCell>
        <mxCell id="MZOIs3QINGBZEDAcFz5L-1" value="插件支持" style="text;html=1;strokeColor=none;fillColor=none;align=center;verticalAlign=middle;whiteSpace=wrap;rounded=0;fontStyle=1" parent="1" vertex="1">
          <mxGeometry x="280.5" y="530" width="120" height="30" as="geometry" />
        </mxCell>
        <mxCell id="MZOIs3QINGBZEDAcFz5L-2" value="" style="rounded=0;whiteSpace=wrap;html=1;fillColor=#ffe6cc;strokeColor=#d79b00;" parent="1" vertex="1">
          <mxGeometry x="281" y="560" width="121" height="130" as="geometry" />
        </mxCell>
        <mxCell id="MZOIs3QINGBZEDAcFz5L-3" value="接口" style="rounded=0;whiteSpace=wrap;html=1;" parent="1" vertex="1">
          <mxGeometry x="292.5" y="570" width="96" height="30" as="geometry" />
        </mxCell>
        <mxCell id="MZOIs3QINGBZEDAcFz5L-4" value="插件" style="rounded=0;whiteSpace=wrap;html=1;" parent="1" vertex="1">
          <mxGeometry x="292.5" y="610" width="96" height="30" as="geometry" />
        </mxCell>
        <mxCell id="MZOIs3QINGBZEDAcFz5L-5" value="插件管理" style="rounded=0;whiteSpace=wrap;html=1;" parent="1" vertex="1">
          <mxGeometry x="292.5" y="650" width="96" height="30" as="geometry" />
        </mxCell>
        <mxCell id="MZOIs3QINGBZEDAcFz5L-6" value="" style="rounded=0;whiteSpace=wrap;html=1;fillColor=#ffe6cc;strokeColor=#d79b00;" parent="1" vertex="1">
          <mxGeometry x="411" y="560" width="121" height="130" as="geometry" />
        </mxCell>
        <mxCell id="MZOIs3QINGBZEDAcFz5L-7" value="GUI" style="text;html=1;strokeColor=none;fillColor=none;align=center;verticalAlign=middle;whiteSpace=wrap;rounded=0;fontStyle=1" parent="1" vertex="1">
          <mxGeometry x="412" y="530" width="120" height="30" as="geometry" />
        </mxCell>
        <mxCell id="MZOIs3QINGBZEDAcFz5L-8" value="Ribbon UI" style="rounded=0;whiteSpace=wrap;html=1;" parent="1" vertex="1">
          <mxGeometry x="423.5" y="570" width="96" height="30" as="geometry" />
        </mxCell>
        <mxCell id="MZOIs3QINGBZEDAcFz5L-9" value="Docking" style="rounded=0;whiteSpace=wrap;html=1;" parent="1" vertex="1">
          <mxGeometry x="423.5" y="610" width="96" height="30" as="geometry" />
        </mxCell>
        <mxCell id="MZOIs3QINGBZEDAcFz5L-10" value="GraphicsView" style="rounded=0;whiteSpace=wrap;html=1;" parent="1" vertex="1">
          <mxGeometry x="423.5" y="650" width="96" height="30" as="geometry" />
        </mxCell>
        <mxCell id="MZOIs3QINGBZEDAcFz5L-11" value="流执行器" style="rounded=0;whiteSpace=wrap;html=1;" parent="1" vertex="1">
          <mxGeometry x="161" y="570" width="96" height="30" as="geometry" />
        </mxCell>
        <mxCell id="MZOIs3QINGBZEDAcFz5L-12" value="程序执行器" style="rounded=0;whiteSpace=wrap;html=1;" parent="1" vertex="1">
          <mxGeometry x="161" y="610" width="96" height="30" as="geometry" />
        </mxCell>
        <mxCell id="MZOIs3QINGBZEDAcFz5L-13" value="拖曳建模" style="rounded=0;whiteSpace=wrap;html=1;" parent="1" vertex="1">
          <mxGeometry x="161" y="650" width="96" height="30" as="geometry" />
        </mxCell>
        <mxCell id="MZOIs3QINGBZEDAcFz5L-14" value="" style="rounded=0;whiteSpace=wrap;html=1;fillColor=#fff2cc;strokeColor=#d6b656;" parent="1" vertex="1">
          <mxGeometry x="561" y="530" width="230" height="170" as="geometry" />
        </mxCell>
        <mxCell id="MZOIs3QINGBZEDAcFz5L-15" value="Python" style="text;html=1;strokeColor=none;fillColor=none;align=center;verticalAlign=middle;whiteSpace=wrap;rounded=0;fontStyle=1" parent="1" vertex="1">
          <mxGeometry x="561" y="530" width="220" height="30" as="geometry" />
        </mxCell>
        <mxCell id="MZOIs3QINGBZEDAcFz5L-16" value="" style="rounded=0;whiteSpace=wrap;html=1;fillColor=#e1d5e7;strokeColor=#9673a6;" parent="1" vertex="1">
          <mxGeometry x="571" y="560" width="210" height="50" as="geometry" />
        </mxCell>
        <mxCell id="MZOIs3QINGBZEDAcFz5L-17" value="Python绑定模块" style="rounded=0;whiteSpace=wrap;html=1;" parent="1" vertex="1">
          <mxGeometry x="583.5" y="570" width="96" height="30" as="geometry" />
        </mxCell>
        <mxCell id="MZOIs3QINGBZEDAcFz5L-18" value="Chart" style="text;html=1;strokeColor=none;fillColor=none;align=center;verticalAlign=middle;whiteSpace=wrap;rounded=0;fontStyle=1" parent="1" vertex="1">
          <mxGeometry x="572" y="610" width="209" height="30" as="geometry" />
        </mxCell>
        <mxCell id="MZOIs3QINGBZEDAcFz5L-19" value="" style="rounded=0;whiteSpace=wrap;html=1;fillColor=#e1d5e7;strokeColor=#9673a6;" parent="1" vertex="1">
          <mxGeometry x="572" y="640" width="209" height="50" as="geometry" />
        </mxCell>
        <mxCell id="MZOIs3QINGBZEDAcFz5L-20" value="QWT高速绘图模块" style="rounded=0;whiteSpace=wrap;html=1;" parent="1" vertex="1">
          <mxGeometry x="578" y="650" width="110" height="30" as="geometry" />
        </mxCell>
        <mxCell id="MZOIs3QINGBZEDAcFz5L-21" value="DataFrame可视化" style="rounded=0;whiteSpace=wrap;html=1;" parent="1" vertex="1">
          <mxGeometry x="688" y="570" width="83" height="30" as="geometry" />
        </mxCell>
        <mxCell id="MZOIs3QINGBZEDAcFz5L-22" value="绘图设置" style="rounded=0;whiteSpace=wrap;html=1;" parent="1" vertex="1">
          <mxGeometry x="701" y="650" width="70" height="30" as="geometry" />
        </mxCell>
        <mxCell id="MZOIs3QINGBZEDAcFz5L-23" value="" style="rounded=0;whiteSpace=wrap;html=1;fillColor=none;strokeColor=#6c8ebf;" parent="1" vertex="1">
          <mxGeometry x="11" y="730" width="790" height="80" as="geometry" />
        </mxCell>
        <mxCell id="MZOIs3QINGBZEDAcFz5L-24" value="" style="endArrow=classic;html=1;rounded=0;fillColor=#dae8fc;strokeColor=#6c8ebf;entryX=0.5;entryY=1;entryDx=0;entryDy=0;exitX=0.5;exitY=0;exitDx=0;exitDy=0;" parent="1" source="MZOIs3QINGBZEDAcFz5L-23" target="MZOIs3QINGBZEDAcFz5L-25" edge="1">
          <mxGeometry width="50" height="50" relative="1" as="geometry">
            <mxPoint x="406" y="830" as="sourcePoint" />
            <mxPoint x="456" y="780" as="targetPoint" />
          </mxGeometry>
        </mxCell>
        <mxCell id="MZOIs3QINGBZEDAcFz5L-26" value="业务插件" style="text;html=1;strokeColor=none;fillColor=none;align=center;verticalAlign=middle;whiteSpace=wrap;rounded=0;" parent="1" vertex="1">
          <mxGeometry x="10" y="784" width="91" height="30" as="geometry" />
        </mxCell>
        <mxCell id="MZOIs3QINGBZEDAcFz5L-27" value="扩展模块" style="text;html=1;strokeColor=none;fillColor=none;align=center;verticalAlign=middle;whiteSpace=wrap;rounded=0;" parent="1" vertex="1">
          <mxGeometry x="561" y="500" width="75" height="30" as="geometry" />
        </mxCell>
        <mxCell id="MZOIs3QINGBZEDAcFz5L-28" value="" style="rounded=0;whiteSpace=wrap;html=1;fillColor=#dae8fc;strokeColor=#6c8ebf;" parent="1" vertex="1">
          <mxGeometry x="21" y="740" width="770" height="50" as="geometry" />
        </mxCell>
        <mxCell id="MZOIs3QINGBZEDAcFz5L-29" value="图元实例化" style="rounded=0;whiteSpace=wrap;html=1;" parent="1" vertex="1">
          <mxGeometry x="163" y="750" width="98" height="30" as="geometry" />
        </mxCell>
        <mxCell id="MZOIs3QINGBZEDAcFz5L-30" value="插件初始化" style="rounded=0;whiteSpace=wrap;html=1;" parent="1" vertex="1">
          <mxGeometry x="41" y="750" width="98" height="30" as="geometry" />
        </mxCell>
        <mxCell id="MZOIs3QINGBZEDAcFz5L-31" value="业务流解析" style="rounded=0;whiteSpace=wrap;html=1;" parent="1" vertex="1">
          <mxGeometry x="285" y="750" width="98" height="30" as="geometry" />
        </mxCell>
        <mxCell id="MZOIs3QINGBZEDAcFz5L-32" value="业务流执行器" style="rounded=0;whiteSpace=wrap;html=1;" parent="1" vertex="1">
          <mxGeometry x="407" y="750" width="98" height="30" as="geometry" />
        </mxCell>
        <mxCell id="MZOIs3QINGBZEDAcFz5L-33" value="私有属性持久化" style="rounded=0;whiteSpace=wrap;html=1;" parent="1" vertex="1">
          <mxGeometry x="529" y="750" width="98" height="30" as="geometry" />
        </mxCell>
        <mxCell id="MZOIs3QINGBZEDAcFz5L-35" value="后处理" style="rounded=0;whiteSpace=wrap;html=1;" parent="1" vertex="1">
          <mxGeometry x="651" y="750" width="98" height="30" as="geometry" />
        </mxCell>
      </root>
    </mxGraphModel>
  </diagram>
  <diagram id="kFHm3cZLQcxw8mmULome" name="uml">
    <mxGraphModel dx="830" dy="478" grid="1" gridSize="10" guides="1" tooltips="1" connect="1" arrows="1" fold="1" page="1" pageScale="1" pageWidth="827" pageHeight="1169" math="0" shadow="0">
      <root>
        <mxCell id="0" />
        <mxCell id="1" parent="0" />
        <mxCell id="8iHhiguWDXFRQNNRaSfh-5" value="Qt Graphics View" style="html=1;dropTarget=0;fontSize=14;" parent="1" vertex="1">
          <mxGeometry x="576" y="50" width="180" height="60" as="geometry" />
        </mxCell>
        <mxCell id="8iHhiguWDXFRQNNRaSfh-6" value="" style="shape=module;jettyWidth=8;jettyHeight=4;" parent="8iHhiguWDXFRQNNRaSfh-5" vertex="1">
          <mxGeometry x="1" width="20" height="20" relative="1" as="geometry">
            <mxPoint x="-27" y="7" as="offset" />
          </mxGeometry>
        </mxCell>
        <mxCell id="8iHhiguWDXFRQNNRaSfh-7" value="DA Graphics View" style="html=1;dropTarget=0;fontSize=14;" parent="1" vertex="1">
          <mxGeometry x="576" y="150" width="180" height="60" as="geometry" />
        </mxCell>
        <mxCell id="8iHhiguWDXFRQNNRaSfh-8" value="" style="shape=module;jettyWidth=8;jettyHeight=4;" parent="8iHhiguWDXFRQNNRaSfh-7" vertex="1">
          <mxGeometry x="1" width="20" height="20" relative="1" as="geometry">
            <mxPoint x="-27" y="7" as="offset" />
          </mxGeometry>
        </mxCell>
        <mxCell id="8iHhiguWDXFRQNNRaSfh-9" value="DA Workflow" style="html=1;dropTarget=0;fontSize=14;" parent="1" vertex="1">
          <mxGeometry x="576" y="250" width="180" height="60" as="geometry" />
        </mxCell>
        <mxCell id="8iHhiguWDXFRQNNRaSfh-10" value="" style="shape=module;jettyWidth=8;jettyHeight=4;" parent="8iHhiguWDXFRQNNRaSfh-9" vertex="1">
          <mxGeometry x="1" width="20" height="20" relative="1" as="geometry">
            <mxPoint x="-27" y="7" as="offset" />
          </mxGeometry>
        </mxCell>
        <mxCell id="8iHhiguWDXFRQNNRaSfh-11" value="" style="endArrow=block;dashed=1;endFill=0;endSize=12;html=1;rounded=0;fontSize=14;exitX=0.5;exitY=0;exitDx=0;exitDy=0;entryX=0.5;entryY=1;entryDx=0;entryDy=0;" parent="1" source="8iHhiguWDXFRQNNRaSfh-7" target="8iHhiguWDXFRQNNRaSfh-5" edge="1">
          <mxGeometry width="160" relative="1" as="geometry">
            <mxPoint x="666" y="130" as="sourcePoint" />
            <mxPoint x="826" y="130" as="targetPoint" />
          </mxGeometry>
        </mxCell>
        <mxCell id="8iHhiguWDXFRQNNRaSfh-12" value="" style="endArrow=block;dashed=1;endFill=0;endSize=12;html=1;rounded=0;fontSize=14;exitX=0.5;exitY=0;exitDx=0;exitDy=0;entryX=0.5;entryY=1;entryDx=0;entryDy=0;" parent="1" source="8iHhiguWDXFRQNNRaSfh-9" target="8iHhiguWDXFRQNNRaSfh-7" edge="1">
          <mxGeometry width="160" relative="1" as="geometry">
            <mxPoint x="676" y="160" as="sourcePoint" />
            <mxPoint x="676" y="120" as="targetPoint" />
          </mxGeometry>
        </mxCell>
        <mxCell id="8iHhiguWDXFRQNNRaSfh-13" value="" style="rounded=0;whiteSpace=wrap;html=1;fontSize=14;fillColor=none;dashed=1;" parent="1" vertex="1">
          <mxGeometry x="556" y="140" width="220" height="200" as="geometry" />
        </mxCell>
        <mxCell id="8iHhiguWDXFRQNNRaSfh-14" value="DA Framework" style="text;html=1;strokeColor=none;fillColor=none;align=center;verticalAlign=middle;whiteSpace=wrap;rounded=0;dashed=1;fontSize=14;" parent="1" vertex="1">
          <mxGeometry x="550" y="317" width="110" height="30" as="geometry" />
        </mxCell>
        <mxCell id="1g5Djw53PUrP1wyeVonk-1" value="" style="rounded=0;whiteSpace=wrap;html=1;" vertex="1" parent="1">
          <mxGeometry x="100" y="590" width="470" height="160" as="geometry" />
        </mxCell>
        <mxCell id="1g5Djw53PUrP1wyeVonk-2" value="DADumpCapture" style="text;html=1;align=center;verticalAlign=middle;whiteSpace=wrap;rounded=0;" vertex="1" parent="1">
          <mxGeometry x="100" y="590" width="110" height="30" as="geometry" />
        </mxCell>
        <mxCell id="1g5Djw53PUrP1wyeVonk-3" value="" style="rounded=0;whiteSpace=wrap;html=1;connectable=0;fillColor=#fff2cc;strokeColor=#d6b656;" vertex="1" parent="1">
          <mxGeometry x="120" y="655" width="200" height="70" as="geometry" />
        </mxCell>
        <mxCell id="1g5Djw53PUrP1wyeVonk-4" value="initDump" style="text;html=1;align=center;verticalAlign=middle;whiteSpace=wrap;rounded=0;" vertex="1" parent="1">
          <mxGeometry x="120" y="655" width="60" height="25" as="geometry" />
        </mxCell>
        <mxCell id="1g5Djw53PUrP1wyeVonk-5" value="dump文件路径回调" style="rounded=0;whiteSpace=wrap;html=1;" vertex="1" parent="1">
          <mxGeometry x="200" y="620" width="120" height="20" as="geometry" />
        </mxCell>
        <mxCell id="1g5Djw53PUrP1wyeVonk-6" value="SetUnhandledExceptionFilter" style="rounded=0;whiteSpace=wrap;html=1;fillColor=#f8cecc;strokeColor=#b85450;" vertex="1" parent="1">
          <mxGeometry x="140" y="690" width="160" height="20" as="geometry" />
        </mxCell>
        <mxCell id="1g5Djw53PUrP1wyeVonk-7" value="" style="rounded=0;whiteSpace=wrap;html=1;connectable=0;fillColor=#ffe6cc;strokeColor=#d79b00;" vertex="1" parent="1">
          <mxGeometry x="350" y="655" width="200" height="70" as="geometry" />
        </mxCell>
        <mxCell id="1g5Djw53PUrP1wyeVonk-9" value="" style="endArrow=classic;html=1;rounded=0;exitX=0.5;exitY=1;exitDx=0;exitDy=0;entryX=0.08;entryY=-0.04;entryDx=0;entryDy=0;entryPerimeter=0;" edge="1" parent="1" source="1g5Djw53PUrP1wyeVonk-5" target="1g5Djw53PUrP1wyeVonk-11">
          <mxGeometry width="50" height="50" relative="1" as="geometry">
            <mxPoint x="260" y="670" as="sourcePoint" />
            <mxPoint x="410" y="670" as="targetPoint" />
            <Array as="points">
              <mxPoint x="260" y="670" />
              <mxPoint x="390" y="670" />
            </Array>
          </mxGeometry>
        </mxCell>
        <mxCell id="1g5Djw53PUrP1wyeVonk-10" value="" style="endArrow=classic;html=1;rounded=0;" edge="1" parent="1">
          <mxGeometry width="50" height="50" relative="1" as="geometry">
            <mxPoint x="300" y="700" as="sourcePoint" />
            <mxPoint x="380" y="700" as="targetPoint" />
          </mxGeometry>
        </mxCell>
        <mxCell id="1g5Djw53PUrP1wyeVonk-11" value="MiniDumpWriteDump" style="rounded=0;whiteSpace=wrap;html=1;fillColor=#e1d5e7;strokeColor=#9673a6;" vertex="1" parent="1">
          <mxGeometry x="380" y="690" width="130" height="20" as="geometry" />
        </mxCell>
      </root>
    </mxGraphModel>
  </diagram>
</mxfile>
